<?xml version="1.0" encoding="UTF-8"?>
<svg width="388px" height="107px" viewBox="0 0 388 107" version="1.1" xmlns="http://www.w3.org/2000/svg" xmlns:xlink="http://www.w3.org/1999/xlink">
    <title>Element/Logo</title>
    <defs>
        <polygon id="path-1" points="0 0.229 77.5388 0.229 77.5388 105.9998 0 105.9998"></polygon>
        <polygon id="path-3" points="0.0349 0.2225 78.6049 0.2225 78.6049 79 0.0349 79"></polygon>
        <polygon id="path-5" points="0.7274 0.2228 78.266 0.2228 78.266 78.9998 0.7274 78.9998"></polygon>
    </defs>
    <g id="Element/Logo" stroke="none" stroke-width="1" fill="none" fill-rule="evenodd">
        <g id="Group-12">
            <path d="M290.5745,33.6461 L267.4465,16.7291 C266.0465,15.7051 264.3915,15.2011 262.7405,15.2148162 C261.0895,15.2011 259.4345,15.7051 258.0345,16.7291 L236.7105,32.3261 C235.6565,33.0971 234.2235,33.0971 233.1695,32.3261 L223.4385,25.2091 C222.0385,24.1851 220.3845,23.6811 218.7325,23.6951 C217.0815,23.6811 215.4275,24.1851 214.0265,25.2091 L190.8985,42.1261 C188.5115,43.8721 187.1015,46.6511 187.1015,49.6081 L187.1015,102.3831 C187.1015,103.7961 188.2465,104.9411 189.6585,104.9411 L203.7825,104.9411 C205.1935,104.9411 206.3375,103.7971 206.3375,102.3851 L206.3375,59.1191 C206.3375,57.7501 206.9905,56.4631 208.0965,55.6561 L217.2415,48.9751 C217.6855,48.6511 218.2105,48.4991 218.7325,48.5121 C219.2555,48.4991 219.7805,48.6511 220.2235,48.9751 L229.3775,55.6621 C230.3895,56.4011 231.0145,57.5461 231.1085,58.7861 L231.1085,102.3831 C231.1085,103.7961 232.2545,104.9411 233.6665,104.9411 L235.3975,104.9411 L246.0755,104.9411 L247.8065,104.9411 C249.2195,104.9411 250.3645,103.7961 250.3645,102.3831 L250.3645,50.3061 C250.4585,49.0661 251.0835,47.9211 252.0955,47.1821 L261.2495,40.4951 C261.6925,40.1711 262.2185,40.0191 262.7405,40.0321 C263.2625,40.0191 263.7875,40.1711 264.2315,40.4951 L273.3765,47.1761 C274.4825,47.9831 275.1355,49.2701 275.1355,50.6391 L275.1355,102.3831 C275.1355,103.7961 276.2805,104.9411 277.6935,104.9411 L291.8135,104.9411 C293.2265,104.9411 294.3715,103.7961 294.3715,102.3831 L294.3715,41.1281 C294.3715,38.1711 292.9615,35.3921 290.5745,33.6461" id="Fill-1" fill="#2A7DE1"></path>
            <g id="Group-5" transform="translate(0.000000, 0.771000)">
                <mask id="mask-2" fill="white">
                    <use xlink:href="#path-1"></use>
                </mask>
                <g id="Clip-4"></g>
                <path d="M38.9768,44.5758 C33.1648,44.5758 28.3388,46.6308 24.4958,50.7388 C20.6518,54.8478 18.7308,60.1158 18.7308,66.5428 C18.7308,75.2338 22.2538,81.8558 29.3098,86.4068 C30.9428,87.4598 32.7908,88.1538 34.7118,88.4448 C42.5888,89.6388 48.9278,87.6978 53.7318,82.6218 C57.6208,78.5138 59.5658,73.1318 59.5658,66.4728 C59.5658,59.9558 57.6208,54.6758 53.7318,50.6358 C49.8428,46.5968 44.9258,44.5758 38.9768,44.5758 M61.2418,0.2288 L75.0358,0.2288 C76.4178,0.2288 77.5388,1.3488 77.5388,2.7308 L77.5388,101.5698 C77.5388,102.9518 76.4178,104.0728 75.0358,104.0728 L61.2418,104.0728 C59.8588,104.0728 58.7388,102.9518 58.7388,101.5698 C58.7388,99.5068 56.3798,98.3278 54.7338,99.5718 C52.3938,101.3408 50.0488,102.7148 47.6998,103.6948 C44.0078,105.2318 40.0078,105.9998 35.6978,105.9998 C26.0228,105.9998 17.6528,102.2478 10.5918,94.7428 C3.5298,87.2358 -0.0002,77.9048 -0.0002,66.7488 C-0.0002,55.1808 3.4158,45.7008 10.2478,38.3098 C17.0808,30.9188 25.3798,27.2228 35.1478,27.2228 C39.6408,27.2228 43.8578,28.0728 47.8018,29.7698 C50.2148,30.8098 52.5168,32.1678 54.7068,33.8428 C56.3578,35.1068 58.7388,33.9458 58.7388,31.8668 L58.7388,2.7308 C58.7388,1.3488 59.8588,0.2288 61.2418,0.2288" id="Fill-3" fill="#10069F" mask="url(#mask-2)"></path>
            </g>
            <g id="Group-8" transform="translate(93.000000, 27.771000)">
                <mask id="mask-4" fill="white">
                    <use xlink:href="#path-3"></use>
                </mask>
                <g id="Clip-7"></g>
                <path d="M39.1819,17.9205 C33.3419,17.9205 28.4789,19.9515 24.5929,24.0145 C20.7069,28.0775 18.7639,33.2755 18.7639,39.6115 C18.7639,46.1315 20.6839,51.4105 24.5239,55.4495 C28.3639,59.4905 33.2259,61.5095 39.1139,61.5095 C44.9989,61.5095 49.8969,59.4665 53.8059,55.3805 C57.7139,51.2955 59.6689,46.0395 59.6689,39.6115 C59.6689,33.1855 57.7479,27.9625 53.9099,23.9455 C50.0689,19.9295 45.1599,17.9205 39.1819,17.9205 M38.8729,0.2225 C45.9409,0.2225 52.5859,1.9905 58.8079,5.5245 C65.0279,9.0605 69.8819,13.8575 73.3719,19.9175 C76.8599,25.9775 78.6049,32.5185 78.6049,39.5435 C78.6049,46.6125 76.8489,53.2245 73.3379,59.3755 C69.8259,65.5265 65.0389,70.3365 58.9799,73.8015 C52.9199,77.2675 46.2399,79.0005 38.9409,79.0005 C28.1989,79.0005 19.0279,75.1795 11.4309,67.5355 C3.8319,59.8915 0.0349,50.6065 0.0349,39.6805 C0.0349,27.9745 4.3259,18.2195 12.9109,10.4145 C20.4399,3.6205 29.0939,0.2225 38.8729,0.2225" id="Fill-6" fill="#10069F" mask="url(#mask-4)"></path>
            </g>
            <g id="Group-11" transform="translate(309.000000, 27.771000)">
                <mask id="mask-6" fill="white">
                    <use xlink:href="#path-5"></use>
                </mask>
                <g id="Clip-10"></g>
                <path d="M39.7044,17.5758 C33.8924,17.5758 29.0664,19.6308 25.2224,23.7388 C21.3794,27.8478 19.4574,33.1158 19.4574,39.5428 C19.4574,47.9728 22.7744,54.4568 29.4094,58.9918 C31.4004,60.3528 33.6954,61.2228 36.0864,61.5358 C43.6644,62.5288 49.7884,60.5578 54.4584,55.6218 C58.3484,51.5138 60.2934,46.1318 60.2934,39.4728 C60.2934,32.9558 58.3484,27.6758 54.4584,23.6358 C50.5704,19.5968 45.6524,17.5758 39.7044,17.5758 M61.9694,2.1508 L75.7644,2.1508 C77.1454,2.1508 78.2664,3.2708 78.2664,4.6528 L78.2664,74.3848 C78.2664,75.8688 77.0624,77.0728 75.5794,77.0728 L61.9694,77.0728 C60.5874,77.0728 59.4664,75.9518 59.4664,74.5698 C59.4664,72.5068 57.1074,71.3278 55.4614,72.5718 C53.1214,74.3408 50.7764,75.7148 48.4274,76.6948 C44.7354,78.2318 40.7344,78.9998 36.4244,78.9998 C26.7504,78.9998 18.3804,75.2478 11.3194,67.7428 C4.2584,60.2358 0.7274,50.9048 0.7274,39.7488 C0.7274,28.1808 4.1434,18.7008 10.9764,11.3098 C17.8084,3.9188 26.1074,0.2228 35.8754,0.2228 C40.3684,0.2228 44.5854,1.0728 48.5304,2.7698 C50.9424,3.8098 53.2444,5.1678 55.4344,6.8438 C57.0854,8.1068 59.4664,6.9468 59.4664,4.8668 L59.4664,4.6528 C59.4664,3.2708 60.5874,2.1508 61.9694,2.1508" id="Fill-9" fill="#10069F" mask="url(#mask-6)"></path>
            </g>
        </g>
    </g>
</svg>